# xmcd CD database file
#
# Track frame offsets:
#	150
#	13774
#	26712
#	37743
#	49341
#	64238
#	78755
#	92098
#	103128
#	116356
#	130590
#	145852
#	159057
#	173161
#	186131
#	196727
#	210110
#	223240
#	236094
#	250918
#	265318
#	282480
#	296065
#	309171
#
# Disc length: 4262 seconds
#
# Revision: 0
# Processed by: cddbd v1.5.2PL0 Copyright (c) Steve Scherf et al.
# Submitted via: CDex 1.99.1
#
DISCID=4e10a418
DTITLE=Nat king cole - The very best of CD2
DYEAR=2015
DGENRE=Jazz
TTITLE0=Route 66
TTITLE1=For sentimental reasons
TTITLE2=Straighten up and fly right
TTITLE3=Scotchin'with the soda
TTITLE4=That ain't right
TTITLE5=Call the police
TTITLE6=Hit that jive jack
TTITLE7=Jumpin'at the capitol
TTITLE8=Gee, baby ain't i good to you
TTITLE9=Sweet lorrainer
TTITLE10=Embraceable you
TTITLE11=It's only a paper moon
TTITLE12=I just can't see for lookin'
TTITLE13=Besame mucho
TTITLE14=Bring another drink
TTITLE15=What is this thing called love?
TTITLE16=I'm a shy guy
TTITLE17=You're nobody til somebody loves you
TTITLE18=The frimfram sauce
TTITLE19=I'm in the mood for love
TTITLE20=Chant of the blues
TTITLE21=Baby all the time
TTITLE22=How deep is the ocean
TTITLE23=Sweet georgia brown
EXTD=YEAR: 2015
EXTT0=
EXTT1=
EXTT2=
EXTT3=
EXTT4=
EXTT5=
EXTT6=
EXTT7=
EXTT8=
EXTT9=
EXTT10=
EXTT11=
EXTT12=
EXTT13=
EXTT14=
EXTT15=
EXTT16=
EXTT17=
EXTT18=
EXTT19=
EXTT20=
EXTT21=
EXTT22=
EXTT23=
PLAYORDER=
